<?xml version="1.0" encoding="UTF-8" standalone="no"?>
<!-- Created with Inkscape (http://www.inkscape.org/) -->

<svg
   xmlns:dc="http://purl.org/dc/elements/1.1/"
   xmlns:cc="http://creativecommons.org/ns#"
   xmlns:rdf="http://www.w3.org/1999/02/22-rdf-syntax-ns#"
   xmlns:svg="http://www.w3.org/2000/svg"
   xmlns="http://www.w3.org/2000/svg"
   xmlns:sodipodi="http://sodipodi.sourceforge.net/DTD/sodipodi-0.dtd"
   xmlns:inkscape="http://www.inkscape.org/namespaces/inkscape"
   height="100mm"
   width="100mm"
   viewBox="0 0 354.33071 354.33071"
   id="svg2"
   version="1.1"
   inkscape:version="0.91 r13725"
   sodipodi:docname="sprite.svg">
  <defs
     id="defs8" />
  <sodipodi:namedview
     pagecolor="#ffffff"
     bordercolor="#666666"
     borderopacity="1"
     objecttolerance="10"
     gridtolerance="10"
     guidetolerance="10"
     inkscape:pageopacity="1"
     inkscape:pageshadow="2"
     inkscape:window-width="1366"
     inkscape:window-height="744"
     id="namedview6"
     showgrid="false"
     inkscape:zoom="0.89702955"
     inkscape:cx="98.489646"
     inkscape:cy="178.32843"
     inkscape:window-x="0"
     inkscape:window-y="24"
     inkscape:window-maximized="1"
     inkscape:current-layer="svg2" />
  <metadata
     id="metadata4">
    <rdf:RDF>
      <cc:Work
         rdf:about="">
        <dc:format>image/svg+xml</dc:format>
        <dc:type
           rdf:resource="http://purl.org/dc/dcmitype/StillImage" />
        <dc:title></dc:title>
      </cc:Work>
    </rdf:RDF>
  </metadata>
  <g
     id="g3394"
     transform="translate(23.4106,65.772638)">
    <path
       inkscape:connector-curvature="0"
       d="m 159.97501,14.93244 c -3.56,-0.412 -7.771,-0.758 -12.261,-0.771 -4.491,0.013 -8.702,0.36 -12.261,0.771 -46.932,5.429 -62.159,59.805 -57.856,101.219 1.865,17.904 30.089,18.087 28.203,0 -1.425,-13.751 -0.994,-33.877 5.16,-49.589 0.6,-1.532 1.968,-1.799 1.968,0.077 -0.014,30.557 -0.188,153.767 -2.008,197.852 -0.859,20.806 31.395,20.72 32.248,0 1.513,-36.677 1.984,-106.796 1.984,-110.073 0,-1.768 1.334,-2.584 2.562,-2.446 1.229,-0.138 2.563,0.679 2.563,2.446 0,3.276 0.47,73.396 1.983,110.073 0.854,20.72 33.107,20.806 32.248,0 -1.82,-44.085 -1.994,-167.295 -2.008,-197.852 -0.001,-1.876 1.368,-1.609 1.968,-0.077 6.153,15.712 6.585,35.837 5.159,49.589 -1.886,18.087 26.337,17.904 28.203,0 4.302,-41.414 -10.925,-95.79 -57.855,-101.219 z"
       id="path3293" />
    <path
       inkscape:connector-curvature="0"
       d="m 147.71301,-57.19056 c -0.17,-0.002 -0.338,-0.013 -0.509,-0.013 -17.238,0 -31.214,13.971 -31.214,31.217 0,17.23 13.976,31.208 31.214,31.208 0.171,0 0.339,-0.01 0.509,-0.013 0.17,0.003 0.337,0.013 0.508,0.013 17.238,0 31.214,-13.978 31.214,-31.208 0,-17.246 -13.976,-31.217 -31.214,-31.217 -0.17,0 -0.338,0.011 -0.508,0.013 z"
       id="path3295" />
  </g>
</svg>
